<svg xmlns="http://www.w3.org/2000/svg" viewBox="0 0 24 24"><path fill="#374151" d="M10.59 12.594l3.547 2.019 2.718-1.49a3.7 3.7 0 0 1 .375-1.682 5.065 5.065 0 0 0-4.89-2.016 5.13 5.13 0 0 0-1.75 3.17zM0 15.41a3.888 3.888 0 0 0 3.888 3.888h12.038l.003-.003-4.579-2.607-2.755 1.508a.193.193 0 0 1-.275-.172v-1.846l-3.87-2.204A3.888 3.888 0 0 0 0 15.41zm16.926-3.773l-.278.152-2.618 1.435-2.701-1.538-.011.006-3.624-2.063a7.01 7.01 0 0 1 6.46-4.319 6.998 6.998 0 0 1 6.394 4.15 3.697 3.697 0 0 0-3.622 2.177zm3.688 1.07a3.7 3.7 0 1 0 0 7.4 3.7 3.7 0 0 0 0-7.4z"/></svg>